<svg id="visual" viewBox="0 0 1920 1080" width="1920" height="1080" xmlns="http://www.w3.org/2000/svg" xmlns:xlink="http://www.w3.org/1999/xlink" version="1.1"><path d="M0 403L45.7 387.2C91.3 371.3 182.7 339.7 274.2 326.2C365.7 312.7 457.3 317.3 548.8 328C640.3 338.7 731.7 355.3 823 373.2C914.3 391 1005.7 410 1097 421.2C1188.3 432.3 1279.7 435.7 1371.2 421.2C1462.7 406.7 1554.3 374.3 1645.8 362.7C1737.3 351 1828.7 360 1874.3 364.5L1920 369L1920 0L1874.3 0C1828.7 0 1737.3 0 1645.8 0C1554.3 0 1462.7 0 1371.2 0C1279.7 0 1188.3 0 1097 0C1005.7 0 914.3 0 823 0C731.7 0 640.3 0 548.8 0C457.3 0 365.7 0 274.2 0C182.7 0 91.3 0 45.7 0L0 0Z" fill="#ef6723"></path><path d="M0 214L45.7 223.2C91.3 232.3 182.7 250.7 274.2 259C365.7 267.3 457.3 265.7 548.8 278.8C640.3 292 731.7 320 823 330.5C914.3 341 1005.7 334 1097 311.7C1188.3 289.3 1279.7 251.7 1371.2 251C1462.7 250.3 1554.3 286.7 1645.8 310.8C1737.3 335 1828.7 347 1874.3 353L1920 359L1920 0L1874.3 0C1828.7 0 1737.3 0 1645.8 0C1554.3 0 1462.7 0 1371.2 0C1279.7 0 1188.3 0 1097 0C1005.7 0 914.3 0 823 0C731.7 0 640.3 0 548.8 0C457.3 0 365.7 0 274.2 0C182.7 0 91.3 0 45.7 0L0 0Z" fill="#d22e45"></path><path d="M0 258L45.7 251C91.3 244 182.7 230 274.2 226C365.7 222 457.3 228 548.8 218.5C640.3 209 731.7 184 823 193.2C914.3 202.3 1005.7 245.7 1097 255.5C1188.3 265.3 1279.7 241.7 1371.2 225.7C1462.7 209.7 1554.3 201.3 1645.8 198.3C1737.3 195.3 1828.7 197.7 1874.3 198.8L1920 200L1920 0L1874.3 0C1828.7 0 1737.3 0 1645.8 0C1554.3 0 1462.7 0 1371.2 0C1279.7 0 1188.3 0 1097 0C1005.7 0 914.3 0 823 0C731.7 0 640.3 0 548.8 0C457.3 0 365.7 0 274.2 0C182.7 0 91.3 0 45.7 0L0 0Z" fill="#9f0057"></path><path d="M0 105L45.7 109.8C91.3 114.7 182.7 124.3 274.2 136.2C365.7 148 457.3 162 548.8 169C640.3 176 731.7 176 823 181.3C914.3 186.7 1005.7 197.3 1097 200C1188.3 202.7 1279.7 197.3 1371.2 189.3C1462.7 181.3 1554.3 170.7 1645.8 174C1737.3 177.3 1828.7 194.7 1874.3 203.3L1920 212L1920 0L1874.3 0C1828.7 0 1737.3 0 1645.8 0C1554.3 0 1462.7 0 1371.2 0C1279.7 0 1188.3 0 1097 0C1005.7 0 914.3 0 823 0C731.7 0 640.3 0 548.8 0C457.3 0 365.7 0 274.2 0C182.7 0 91.3 0 45.7 0L0 0Z" fill="#5d005a"></path><path d="M0 133L45.7 127.5C91.3 122 182.7 111 274.2 107.5C365.7 104 457.3 108 548.8 101.3C640.3 94.7 731.7 77.3 823 67C914.3 56.7 1005.7 53.3 1097 54.3C1188.3 55.3 1279.7 60.7 1371.2 67.2C1462.7 73.7 1554.3 81.3 1645.8 91.2C1737.3 101 1828.7 113 1874.3 119L1920 125L1920 0L1874.3 0C1828.7 0 1737.3 0 1645.8 0C1554.3 0 1462.7 0 1371.2 0C1279.7 0 1188.3 0 1097 0C1005.7 0 914.3 0 823 0C731.7 0 640.3 0 548.8 0C457.3 0 365.7 0 274.2 0C182.7 0 91.3 0 45.7 0L0 0Z" fill="#00094b"></path></svg>