<?xml version="1.0" encoding="UTF-8"?>
<!DOCTYPE svg PUBLIC "-//W3C//DTD SVG 1.1//EN" "http://www.w3.org/Graphics/SVG/1.1/DTD/svg11.dtd">
<svg xmlns="http://www.w3.org/2000/svg" version="1.1" width="432px" height="284px" style="shape-rendering:geometricPrecision; text-rendering:geometricPrecision; image-rendering:optimizeQuality; fill-rule:evenodd; clip-rule:evenodd" xmlns:xlink="http://www.w3.org/1999/xlink">
<g><path style="opacity:0.973" fill="#1d1c1c" d="M 193.5,-0.5 C 207.833,-0.5 222.167,-0.5 236.5,-0.5C 241.579,0.0326038 246.079,2.0326 250,5.5C 290.138,4.34209 330.304,4.17542 370.5,5C 383.848,8.75791 395.015,15.9246 404,26.5C 414.933,38.546 423.433,52.046 429.5,67C 429.312,74.0194 425.646,77.5194 418.5,77.5C 385.053,68.4554 351.053,65.2887 316.5,68C 327.344,95.2986 330.51,123.465 326,152.5C 323.543,156.991 320.043,160.491 315.5,163C 309.281,168.717 303.614,174.883 298.5,181.5C 301.928,182.596 303.928,184.929 304.5,188.5C 303.005,195.914 302.005,203.414 301.5,211C 303.225,219.35 302.725,227.517 300,235.5C 287.833,247 275.667,258.5 263.5,270C 258.898,274.094 254.898,278.594 251.5,283.5C 228.5,283.5 205.5,283.5 182.5,283.5C 178.733,280.913 175.067,278.08 171.5,275C 158,262.167 144.5,249.333 131,236.5C 129.725,234.283 128.725,231.949 128,229.5C 129.059,216.125 128.559,202.792 126.5,189.5C 126.488,185.349 128.488,182.849 132.5,182C 124,172.167 114.833,163 105,154.5C 99.8805,125.073 102.714,96.4062 113.5,68.5C 78.9662,65.42 44.9662,68.42 11.5,77.5C 4.81686,76.9878 1.48352,73.4878 1.5,67C 1.52288,64.0746 2.02288,61.2413 3,58.5C 12.5627,42.2584 24.3961,27.7584 38.5,15C 45.068,10.0504 52.4014,6.71711 60.5,5C 99.8333,4.33333 139.167,4.33333 178.5,5C 179.766,5.30945 180.933,5.80945 182,6.5C 182.785,4.71398 183.951,3.21398 185.5,2C 188.31,1.21774 190.977,0.384409 193.5,-0.5 Z"/></g>
<g><path style="opacity:1" fill="#a74d21" d="M 229.5,6.5 C 216.149,6.33393 202.815,6.66726 189.5,7.5C 190.952,6.69808 192.618,6.19808 194.5,6C 206.341,5.17387 218.007,5.34053 229.5,6.5 Z"/></g>
<g><path style="opacity:1" fill="#ec6622" d="M 229.5,6.5 C 233.824,6.92719 238.158,7.26052 242.5,7.5C 244.771,28.2071 254.771,44.0404 272.5,55C 283.812,61.6561 295.812,66.6561 308.5,70C 310.617,71.7309 312.117,73.8976 313,76.5C 321.336,100.262 323.669,124.595 320,149.5C 311.052,158.117 302.385,167.117 294,176.5C 288.443,183.894 283.943,191.894 280.5,200.5C 276.977,206.998 275.811,213.998 277,221.5C 277.717,220.956 278.217,220.289 278.5,219.5C 281.974,207.695 287.974,197.361 296.5,188.5C 295.271,200.015 295.271,211.681 296.5,223.5C 296.705,226.795 295.872,229.795 294,232.5C 279.167,246.667 264.333,260.833 249.5,275C 247.045,276.631 244.545,276.797 242,275.5C 240.347,240.252 240.014,204.918 241,169.5C 241.465,168.069 242.299,166.903 243.5,166C 259.856,162.548 275.856,157.881 291.5,152C 297.376,149.479 302.876,146.312 308,142.5C 308.5,123.17 308.667,103.836 308.5,84.5C 266.993,101.547 223.993,107.88 179.5,103.5C 174.75,101.969 169.75,101.302 164.5,101.5C 149.804,99.2427 135.471,95.576 121.5,90.5C 121.18,108.88 121.513,127.213 122.5,145.5C 127.389,149.112 132.723,151.945 138.5,154C 154.507,159.558 170.84,163.891 187.5,167C 188.333,167.833 189.167,168.667 190,169.5C 190.986,204.918 190.653,240.252 189,275.5C 186.936,276.591 184.769,276.758 182.5,276C 166.667,260.833 150.833,245.667 135,230.5C 134.667,218.5 134.333,206.5 134,194.5C 133.749,192.567 133.249,190.734 132.5,189C 133.167,188.333 133.833,188.333 134.5,189C 142.845,198.515 149.011,209.348 153,221.5C 154.162,211.978 152.496,202.978 148,194.5C 138.601,177.759 126.268,163.425 111,151.5C 106.076,123.672 109.076,96.6718 120,70.5C 136.524,66.154 151.691,58.9873 165.5,49C 178.334,37.8168 186.334,23.9834 189.5,7.5C 202.815,6.66726 216.149,6.33393 229.5,6.5 Z"/></g>
<g><path style="opacity:1" fill="#a6a6a6" d="M 177.5,11.5 C 137.476,11.1899 97.4761,11.5232 57.5,12.5C 58.2625,11.7321 59.2625,11.2321 60.5,11C 99.6688,10.1688 138.669,10.3355 177.5,11.5 Z"/></g>
<g><path style="opacity:1" fill="#fdfdfd" d="M 177.5,11.5 C 177.015,17.8039 174.849,23.4705 171,28.5C 158.933,43.766 143.766,54.4327 125.5,60.5C 103.831,60.3334 82.1641,60.5 60.5,61C 58.6183,61.1981 56.9516,61.6981 55.5,62.5C 42.4622,63.1409 29.7956,65.6409 17.5,70C 14.1832,70.4983 10.8499,70.665 7.5,70.5C 7.16363,66.8331 7.99697,63.4998 10,60.5C 18.921,44.574 30.421,30.7406 44.5,19C 48.5765,16.2951 52.9099,14.1284 57.5,12.5C 97.4761,11.5232 137.476,11.1899 177.5,11.5 Z"/></g>
<g><path style="opacity:1" fill="#fbfbfb" d="M 252.5,10.5 C 292.561,10.0174 332.561,10.5174 372.5,12C 385.368,17.8633 396.201,26.3633 405,37.5C 411.457,45.9667 417.124,54.9667 422,64.5C 422.667,66.1667 422.667,67.8333 422,69.5C 418.927,70.6168 415.76,70.7835 412.5,70C 400.052,66.3103 387.385,63.6436 374.5,62C 351.189,60.7913 327.856,60.1246 304.5,60C 281.892,53.0475 265.059,39.2141 254,18.5C 253.178,15.8832 252.678,13.2165 252.5,10.5 Z"/></g>
<g><path style="opacity:1" fill="#343434" d="M 125.5,60.5 C 102.327,61.277 78.9938,61.9436 55.5,62.5C 56.9516,61.6981 58.6183,61.1981 60.5,61C 82.1641,60.5 103.831,60.3334 125.5,60.5 Z"/></g>
<g><path style="opacity:1" fill="#9b4920" d="M 164.5,101.5 C 169.75,101.302 174.75,101.969 179.5,103.5C 174.269,103.556 169.269,102.889 164.5,101.5 Z"/></g>
<g><path style="opacity:1" fill="#69371e" d="M 280.5,200.5 C 279.346,205.452 278.346,210.452 277.5,215.5C 277.511,217.045 277.844,218.378 278.5,219.5C 278.217,220.289 277.717,220.956 277,221.5C 275.811,213.998 276.977,206.998 280.5,200.5 Z"/></g>
</svg>
