<?xml version="1.0" encoding="UTF-8"?>
<!DOCTYPE svg PUBLIC "-//W3C//DTD SVG 1.1//EN" "http://www.w3.org/Graphics/SVG/1.1/DTD/svg11.dtd">
<svg xmlns="http://www.w3.org/2000/svg" version="1.1" width="432px" height="284px" style="shape-rendering:geometricPrecision; text-rendering:geometricPrecision; image-rendering:optimizeQuality; fill-rule:evenodd; clip-rule:evenodd" xmlns:xlink="http://www.w3.org/1999/xlink">
<g><path style="opacity:0.973" fill="#000000" d="M 202.5,-0.5 C 210.5,-0.5 218.5,-0.5 226.5,-0.5C 232.292,0.144163 238.125,1.14416 244,2.5C 246.335,23.0046 256.168,38.8379 273.5,50C 285.329,57.2778 297.996,62.6112 311.5,66C 312.931,66.4652 314.097,67.2986 315,68.5C 323.188,88.8379 327.022,110.005 326.5,132C 326.758,139.45 325.591,146.616 323,153.5C 302.808,168.357 288.808,187.691 281,211.5C 279.756,215.779 279.423,220.112 280,224.5C 283.8,211.392 290.3,199.892 299.5,190C 300.332,189.312 300.998,189.479 301.5,190.5C 300.069,197.925 299.069,205.425 298.5,213C 299.572,219.807 299.739,226.64 299,233.5C 292.865,240.636 286.365,247.469 279.5,254C 268.937,264.067 258.271,273.901 247.5,283.5C 246.167,283.5 244.833,283.5 243.5,283.5C 242.91,282.234 242.41,280.901 242,279.5C 241.333,242.833 241.333,206.167 242,169.5C 243.008,167.741 244.508,166.574 246.5,166C 269.635,162.012 291.302,154.179 311.5,142.5C 312.155,132.545 312.488,122.545 312.5,112.5C 312.657,102.345 312.157,92.3453 311,82.5C 283.214,95.071 254.047,101.904 223.5,103C 187.575,105.656 152.742,100.823 119,88.5C 118.333,107.5 118.333,126.5 119,145.5C 139.953,156.283 162.119,163.449 185.5,167C 186.931,167.465 188.097,168.299 189,169.5C 189.667,206.167 189.667,242.833 189,279.5C 188.338,280.984 187.504,282.317 186.5,283.5C 185.5,283.5 184.5,283.5 183.5,283.5C 165.237,267.74 147.737,251.073 131,233.5C 131.864,218.79 131.531,204.123 130,189.5C 139.732,198.955 146.399,210.288 150,223.5C 150.856,213.587 148.856,204.253 144,195.5C 133.667,178.846 121.001,164.179 106,151.5C 102.075,123.08 105.075,95.4138 115,68.5C 122.948,64.9584 131.114,61.7917 139.5,59C 159.438,51.2909 173.938,37.7909 183,18.5C 184.587,13.2321 185.92,7.89873 187,2.5C 192.194,1.11362 197.36,0.113618 202.5,-0.5 Z"/></g>
<g><path style="opacity:0.978" fill="#000000" d="M -0.5,67.5 C -0.5,65.1667 -0.5,62.8333 -0.5,60.5C 8.65055,43.1711 20.6506,28.0044 35.5,15C 40.9422,10.9456 46.9422,7.94559 53.5,6C 94.4986,5.50001 135.499,5.33334 176.5,5.5C 174.267,18.1303 168.267,28.6303 158.5,37C 147.909,45.4647 136.242,52.1313 123.5,57C 102.5,57.3333 81.5,57.6667 60.5,58C 41.179,59.7642 22.179,63.2642 3.5,68.5C 2.15082,68.1543 0.817484,67.821 -0.5,67.5 Z"/></g>
<g><path style="opacity:0.978" fill="#000000" d="M 431.5,62.5 C 431.5,63.8333 431.5,65.1667 431.5,66.5C 430.333,67.8148 428.833,68.4814 427,68.5C 408.18,63.1134 389.014,59.6134 369.5,58C 347.77,57.9674 326.103,57.3007 304.5,56C 286.863,49.771 272.363,39.271 261,24.5C 257.221,18.6621 254.721,12.3287 253.5,5.5C 295.881,5.02193 338.214,5.52193 380.5,7C 392.042,12.1954 401.875,19.6954 410,29.5C 418.635,39.6169 425.801,50.6169 431.5,62.5 Z"/></g>
</svg>
